<svg width="233" height="33" viewBox="0 0 233 33" fill="none" xmlns="http://www.w3.org/2000/svg">
<path d="M15.09 0.638854C15.1639 0.449905 15.2898 0.288268 15.4516 0.174507C15.6134 0.0607447 15.8038 0 15.9987 0C16.1936 0 16.384 0.0607447 16.5458 0.174507C16.7076 0.288268 16.8335 0.449905 16.9074 0.638854L20.621 9.9994C20.6905 10.1745 20.8048 10.3262 20.9512 10.4377C21.0977 10.5492 21.2706 10.6161 21.4511 10.6312L31.094 11.4407C31.9661 11.514 32.3191 12.655 31.655 13.2502L24.3083 19.8471C24.171 19.9702 24.0688 20.1304 24.0127 20.3104C23.9566 20.4903 23.9488 20.683 23.9902 20.8672L26.2358 30.7296C26.281 30.9275 26.2692 31.1349 26.2019 31.3257C26.1346 31.5165 26.0148 31.6822 25.8577 31.8017C25.7007 31.9213 25.5133 31.9894 25.3193 31.9974C25.1254 32.0054 24.9335 31.953 24.7679 31.8468L16.5107 26.563C16.3565 26.4645 16.1793 26.4124 15.9987 26.4124C15.8181 26.4124 15.6409 26.4645 15.4867 26.563L7.2295 31.8486C7.06393 31.9548 6.87204 32.0072 6.67807 31.9992C6.4841 31.9912 6.29675 31.9231 6.13967 31.8036C5.9826 31.684 5.86285 31.5184 5.79555 31.3276C5.72825 31.1367 5.71642 30.9293 5.76156 30.7314L8.00716 20.8672C8.04881 20.683 8.04115 20.4903 7.98503 20.3103C7.92892 20.1303 7.82652 19.97 7.68911 19.8471L0.342408 13.2502C0.195287 13.1176 0.088856 12.9424 0.036498 12.7466C-0.01586 12.5508 -0.0118066 12.3432 0.0481483 12.1498C0.108103 11.9564 0.221283 11.7859 0.373453 11.6597C0.525624 11.5336 0.709992 11.4574 0.903371 11.4407L10.5463 10.6312C10.7268 10.6161 10.8997 10.5492 11.0462 10.4377C11.1926 10.3262 11.3069 10.1745 11.3764 9.9994L15.09 0.640685V0.638854Z" fill="url(#paint0_linear_331_120)"/>
<path d="M65.09 0.638854C65.1639 0.449905 65.2898 0.288268 65.4516 0.174507C65.6134 0.0607447 65.8038 0 65.9987 0C66.1936 0 66.384 0.0607447 66.5458 0.174507C66.7076 0.288268 66.8335 0.449905 66.9074 0.638854L70.621 9.9994C70.6905 10.1745 70.8048 10.3262 70.9512 10.4377C71.0977 10.5492 71.2706 10.6161 71.4511 10.6312L81.094 11.4407C81.9661 11.514 82.3191 12.655 81.655 13.2502L74.3083 19.8471C74.171 19.9702 74.0688 20.1304 74.0127 20.3104C73.9566 20.4903 73.9488 20.683 73.9902 20.8672L76.2358 30.7296C76.281 30.9275 76.2692 31.1349 76.2019 31.3257C76.1346 31.5165 76.0148 31.6822 75.8577 31.8017C75.7007 31.9213 75.5133 31.9894 75.3193 31.9974C75.1254 32.0054 74.9335 31.953 74.7679 31.8468L66.5107 26.563C66.3565 26.4645 66.1793 26.4124 65.9987 26.4124C65.8181 26.4124 65.6409 26.4645 65.4867 26.563L57.2295 31.8486C57.0639 31.9548 56.872 32.0072 56.6781 31.9992C56.4841 31.9912 56.2967 31.9231 56.1397 31.8036C55.9826 31.684 55.8628 31.5184 55.7956 31.3276C55.7283 31.1367 55.7164 30.9293 55.7616 30.7314L58.0072 20.8672C58.0488 20.683 58.0411 20.4903 57.985 20.3103C57.9289 20.1303 57.8265 19.97 57.6891 19.8471L50.3424 13.2502C50.1953 13.1176 50.0889 12.9424 50.0365 12.7466C49.9841 12.5508 49.9882 12.3432 50.0481 12.1498C50.1081 11.9564 50.2213 11.7859 50.3735 11.6597C50.5256 11.5336 50.71 11.4574 50.9034 11.4407L60.5463 10.6312C60.7268 10.6161 60.8997 10.5492 61.0462 10.4377C61.1926 10.3262 61.3069 10.1745 61.3764 9.9994L65.09 0.640685V0.638854Z" fill="url(#paint1_linear_331_120)"/>
<path d="M115.09 0.638854C115.164 0.449905 115.29 0.288268 115.452 0.174507C115.613 0.0607447 115.804 0 115.999 0C116.194 0 116.384 0.0607447 116.546 0.174507C116.708 0.288268 116.834 0.449905 116.907 0.638854L120.621 9.9994C120.69 10.1745 120.805 10.3262 120.951 10.4377C121.098 10.5492 121.271 10.6161 121.451 10.6312L131.094 11.4407C131.966 11.514 132.319 12.655 131.655 13.2502L124.308 19.8471C124.171 19.9702 124.069 20.1304 124.013 20.3104C123.957 20.4903 123.949 20.683 123.99 20.8672L126.236 30.7296C126.281 30.9275 126.269 31.1349 126.202 31.3257C126.135 31.5165 126.015 31.6822 125.858 31.8017C125.701 31.9213 125.513 31.9894 125.319 31.9974C125.125 32.0054 124.933 31.953 124.768 31.8468L116.511 26.563C116.356 26.4645 116.179 26.4124 115.999 26.4124C115.818 26.4124 115.641 26.4645 115.487 26.563L107.229 31.8486C107.064 31.9548 106.872 32.0072 106.678 31.9992C106.484 31.9912 106.297 31.9231 106.14 31.8036C105.983 31.684 105.863 31.5184 105.796 31.3276C105.728 31.1367 105.716 30.9293 105.762 30.7314L108.007 20.8672C108.049 20.683 108.041 20.4903 107.985 20.3103C107.929 20.1303 107.827 19.97 107.689 19.8471L100.342 13.2502C100.195 13.1176 100.089 12.9424 100.036 12.7466C99.9841 12.5508 99.9882 12.3432 100.048 12.1498C100.108 11.9564 100.221 11.7859 100.373 11.6597C100.526 11.5336 100.71 11.4574 100.903 11.4407L110.546 10.6312C110.727 10.6161 110.9 10.5492 111.046 10.4377C111.193 10.3262 111.307 10.1745 111.376 9.9994L115.09 0.640685V0.638854Z" fill="url(#paint2_linear_331_120)"/>
<path d="M165.09 0.638854C165.164 0.449905 165.29 0.288268 165.452 0.174507C165.613 0.0607447 165.804 0 165.999 0C166.194 0 166.384 0.0607447 166.546 0.174507C166.708 0.288268 166.834 0.449905 166.907 0.638854L170.621 9.9994C170.69 10.1745 170.805 10.3262 170.951 10.4377C171.098 10.5492 171.271 10.6161 171.451 10.6312L181.094 11.4407C181.966 11.514 182.319 12.655 181.655 13.2502L174.308 19.8471C174.171 19.9702 174.069 20.1304 174.013 20.3104C173.957 20.4903 173.949 20.683 173.99 20.8672L176.236 30.7296C176.281 30.9275 176.269 31.1349 176.202 31.3257C176.135 31.5165 176.015 31.6822 175.858 31.8017C175.701 31.9213 175.513 31.9894 175.319 31.9974C175.125 32.0054 174.933 31.953 174.768 31.8468L166.511 26.563C166.356 26.4645 166.179 26.4124 165.999 26.4124C165.818 26.4124 165.641 26.4645 165.487 26.563L157.229 31.8486C157.064 31.9548 156.872 32.0072 156.678 31.9992C156.484 31.9912 156.297 31.9231 156.14 31.8036C155.983 31.684 155.863 31.5184 155.796 31.3276C155.728 31.1367 155.716 30.9293 155.762 30.7314L158.007 20.8672C158.049 20.683 158.041 20.4903 157.985 20.3103C157.929 20.1303 157.827 19.97 157.689 19.8471L150.342 13.2502C150.195 13.1176 150.089 12.9424 150.036 12.7466C149.984 12.5508 149.988 12.3432 150.048 12.1498C150.108 11.9564 150.221 11.7859 150.373 11.6597C150.526 11.5336 150.71 11.4574 150.903 11.4407L160.546 10.6312C160.727 10.6161 160.9 10.5492 161.046 10.4377C161.193 10.3262 161.307 10.1745 161.376 9.9994L165.09 0.640685V0.638854Z" fill="url(#paint3_linear_331_120)"/>
<path d="M215.09 1.07635C215.164 0.887405 215.29 0.725768 215.452 0.612007C215.613 0.498245 215.804 0.4375 215.999 0.4375C216.194 0.4375 216.384 0.498245 216.546 0.612007C216.708 0.725768 216.834 0.887405 216.907 1.07635L220.621 10.4369C220.69 10.612 220.805 10.7637 220.951 10.8752C221.098 10.9867 221.271 11.0536 221.451 11.0687L231.094 11.8782C231.966 11.9515 232.319 13.0925 231.655 13.6877L224.308 20.2846C224.171 20.4077 224.069 20.5679 224.013 20.7479C223.957 20.9278 223.949 21.1205 223.99 21.3047L226.236 31.1671C226.281 31.365 226.269 31.5724 226.202 31.7632C226.135 31.954 226.015 32.1197 225.858 32.2392C225.701 32.3588 225.513 32.4269 225.319 32.4349C225.125 32.4429 224.933 32.3905 224.768 32.2843L216.511 27.0005C216.356 26.902 216.179 26.8499 215.999 26.8499C215.818 26.8499 215.641 26.902 215.487 27.0005L207.229 32.2861C207.064 32.3923 206.872 32.4447 206.678 32.4367C206.484 32.4287 206.297 32.3606 206.14 32.2411C205.983 32.1215 205.863 31.9559 205.796 31.7651C205.728 31.5742 205.716 31.3668 205.762 31.1689L208.007 21.3047C208.049 21.1205 208.041 20.9278 207.985 20.7478C207.929 20.5678 207.827 20.4075 207.689 20.2846L200.342 13.6877C200.195 13.5551 200.089 13.3799 200.036 13.1841C199.984 12.9883 199.988 12.7807 200.048 12.5873C200.108 12.3939 200.221 12.2234 200.373 12.0972C200.526 11.9711 200.71 11.8949 200.903 11.8782L210.546 11.0687C210.727 11.0536 210.9 10.9867 211.046 10.8752C211.193 10.7637 211.307 10.612 211.376 10.4369L215.09 1.07819V1.07635Z" stroke="#A3A3A3" stroke-width="0.5" stroke-linecap="round" stroke-linejoin="round"/>
<defs>
<linearGradient id="paint0_linear_331_120" x1="0.0727536" y1="0.4375" x2="34.0728" y2="32.4375" gradientUnits="userSpaceOnUse">
<stop stop-color="#8A6ACA"/>
<stop offset="0.5" stop-color="#B167BC"/>
<stop offset="1" stop-color="#9268C7"/>
</linearGradient>
<linearGradient id="paint1_linear_331_120" x1="50.0728" y1="0.4375" x2="84.0728" y2="32.4375" gradientUnits="userSpaceOnUse">
<stop stop-color="#8A6ACA"/>
<stop offset="0.5" stop-color="#B167BC"/>
<stop offset="1" stop-color="#9268C7"/>
</linearGradient>
<linearGradient id="paint2_linear_331_120" x1="100.073" y1="0.4375" x2="134.073" y2="32.4375" gradientUnits="userSpaceOnUse">
<stop stop-color="#8A6ACA"/>
<stop offset="0.5" stop-color="#B167BC"/>
<stop offset="1" stop-color="#9268C7"/>
</linearGradient>
<linearGradient id="paint3_linear_331_120" x1="150.073" y1="0.4375" x2="184.073" y2="32.4375" gradientUnits="userSpaceOnUse">
<stop stop-color="#8A6ACA"/>
<stop offset="0.5" stop-color="#B167BC"/>
<stop offset="1" stop-color="#9268C7"/>
</linearGradient>
</defs>
</svg>
