<svg width="233" height="33" viewBox="0 0 233 33" fill="none" xmlns="http://www.w3.org/2000/svg">
<path d="M165.163 1.07635C165.237 0.887405 165.363 0.725768 165.524 0.612007C165.686 0.498245 165.877 0.4375 166.071 0.4375C166.266 0.4375 166.457 0.498245 166.619 0.612007C166.78 0.725768 166.906 0.887405 166.98 1.07635L170.694 10.4369C170.763 10.612 170.878 10.7637 171.024 10.8752C171.17 10.9867 171.343 11.0536 171.524 11.0687L181.167 11.8782C182.039 11.9515 182.392 13.0925 181.728 13.6877L174.381 20.2846C174.244 20.4077 174.142 20.5679 174.085 20.7479C174.029 20.9278 174.022 21.1205 174.063 21.3047L176.309 31.1671C176.354 31.365 176.342 31.5724 176.275 31.7632C176.207 31.954 176.088 32.1197 175.93 32.2392C175.773 32.3588 175.586 32.4269 175.392 32.4349C175.198 32.4429 175.006 32.3905 174.841 32.2843L166.583 27.0005C166.429 26.902 166.252 26.8499 166.071 26.8499C165.891 26.8499 165.714 26.902 165.559 27.0005L157.302 32.2861C157.137 32.3923 156.945 32.4447 156.751 32.4367C156.557 32.4287 156.37 32.3606 156.212 32.2411C156.055 32.1215 155.936 31.9559 155.868 31.7651C155.801 31.5742 155.789 31.3668 155.834 31.1689L158.08 21.3047C158.122 21.1205 158.114 20.9278 158.058 20.7478C158.002 20.5678 157.899 20.4075 157.762 20.2846L150.415 13.6877C150.268 13.5551 150.162 13.3799 150.109 13.1841C150.057 12.9883 150.061 12.7807 150.121 12.5873C150.181 12.3939 150.294 12.2234 150.446 12.0972C150.598 11.9711 150.783 11.8949 150.976 11.8782L160.619 11.0687C160.8 11.0536 160.972 10.9867 161.119 10.8752C161.265 10.7637 161.38 10.612 161.449 10.4369L165.163 1.07819V1.07635Z" stroke="#A3A3A3" stroke-width="0.5" stroke-linecap="round" stroke-linejoin="round"/>
<path d="M215.163 1.07635C215.237 0.887405 215.363 0.725768 215.524 0.612007C215.686 0.498245 215.877 0.4375 216.071 0.4375C216.266 0.4375 216.457 0.498245 216.619 0.612007C216.78 0.725768 216.906 0.887405 216.98 1.07635L220.694 10.4369C220.763 10.612 220.878 10.7637 221.024 10.8752C221.17 10.9867 221.343 11.0536 221.524 11.0687L231.167 11.8782C232.039 11.9515 232.392 13.0925 231.728 13.6877L224.381 20.2846C224.244 20.4077 224.142 20.5679 224.085 20.7479C224.029 20.9278 224.022 21.1205 224.063 21.3047L226.309 31.1671C226.354 31.365 226.342 31.5724 226.275 31.7632C226.207 31.954 226.088 32.1197 225.93 32.2392C225.773 32.3588 225.586 32.4269 225.392 32.4349C225.198 32.4429 225.006 32.3905 224.841 32.2843L216.583 27.0005C216.429 26.902 216.252 26.8499 216.071 26.8499C215.891 26.8499 215.714 26.902 215.559 27.0005L207.302 32.2861C207.137 32.3923 206.945 32.4447 206.751 32.4367C206.557 32.4287 206.37 32.3606 206.212 32.2411C206.055 32.1215 205.936 31.9559 205.868 31.7651C205.801 31.5742 205.789 31.3668 205.834 31.1689L208.08 21.3047C208.122 21.1205 208.114 20.9278 208.058 20.7478C208.002 20.5678 207.899 20.4075 207.762 20.2846L200.415 13.6877C200.268 13.5551 200.162 13.3799 200.109 13.1841C200.057 12.9883 200.061 12.7807 200.121 12.5873C200.181 12.3939 200.294 12.2234 200.446 12.0972C200.598 11.9711 200.783 11.8949 200.976 11.8782L210.619 11.0687C210.8 11.0536 210.972 10.9867 211.119 10.8752C211.265 10.7637 211.38 10.612 211.449 10.4369L215.163 1.07819V1.07635Z" stroke="#A3A3A3" stroke-width="0.5" stroke-linecap="round" stroke-linejoin="round"/>
<path d="M115.163 1.07635C115.237 0.887405 115.363 0.725768 115.524 0.612007C115.686 0.498245 115.877 0.4375 116.071 0.4375C116.266 0.4375 116.457 0.498245 116.619 0.612007C116.78 0.725768 116.906 0.887405 116.98 1.07635L120.694 10.4369C120.763 10.612 120.878 10.7637 121.024 10.8752C121.17 10.9867 121.343 11.0536 121.524 11.0687L131.167 11.8782C132.039 11.9515 132.392 13.0925 131.728 13.6877L124.381 20.2846C124.244 20.4077 124.142 20.5679 124.085 20.7479C124.029 20.9278 124.022 21.1205 124.063 21.3047L126.309 31.1671C126.354 31.365 126.342 31.5724 126.275 31.7632C126.207 31.954 126.088 32.1197 125.93 32.2392C125.773 32.3588 125.586 32.4269 125.392 32.4349C125.198 32.4429 125.006 32.3905 124.841 32.2843L116.583 27.0005C116.429 26.902 116.252 26.8499 116.071 26.8499C115.891 26.8499 115.714 26.902 115.559 27.0005L107.302 32.2861C107.137 32.3923 106.945 32.4447 106.751 32.4367C106.557 32.4287 106.37 32.3606 106.212 32.2411C106.055 32.1215 105.936 31.9559 105.868 31.7651C105.801 31.5742 105.789 31.3668 105.834 31.1689L108.08 21.3047C108.122 21.1205 108.114 20.9278 108.058 20.7478C108.002 20.5678 107.899 20.4075 107.762 20.2846L100.415 13.6877C100.268 13.5551 100.162 13.3799 100.109 13.1841C100.057 12.9883 100.061 12.7807 100.121 12.5873C100.181 12.3939 100.294 12.2234 100.446 12.0972C100.598 11.9711 100.783 11.8949 100.976 11.8782L110.619 11.0687C110.8 11.0536 110.972 10.9867 111.119 10.8752C111.265 10.7637 111.38 10.612 111.449 10.4369L115.163 1.07819V1.07635Z" stroke="#A3A3A3" stroke-width="0.5" stroke-linecap="round" stroke-linejoin="round"/>
<path d="M15.09 0.638854C15.1639 0.449905 15.2898 0.288268 15.4516 0.174507C15.6134 0.0607447 15.8038 0 15.9987 0C16.1936 0 16.384 0.0607447 16.5458 0.174507C16.7076 0.288268 16.8335 0.449905 16.9074 0.638854L20.621 9.9994C20.6905 10.1745 20.8048 10.3262 20.9512 10.4377C21.0977 10.5492 21.2706 10.6161 21.4511 10.6312L31.094 11.4407C31.9661 11.514 32.3191 12.655 31.655 13.2502L24.3083 19.8471C24.171 19.9702 24.0688 20.1304 24.0127 20.3104C23.9566 20.4903 23.9488 20.683 23.9902 20.8672L26.2358 30.7296C26.281 30.9275 26.2692 31.1349 26.2019 31.3257C26.1346 31.5165 26.0148 31.6822 25.8577 31.8017C25.7007 31.9213 25.5133 31.9894 25.3193 31.9974C25.1254 32.0054 24.9335 31.953 24.7679 31.8468L16.5107 26.563C16.3565 26.4645 16.1793 26.4124 15.9987 26.4124C15.8181 26.4124 15.6409 26.4645 15.4867 26.563L7.2295 31.8486C7.06393 31.9548 6.87204 32.0072 6.67807 31.9992C6.4841 31.9912 6.29675 31.9231 6.13967 31.8036C5.9826 31.684 5.86285 31.5184 5.79555 31.3276C5.72825 31.1367 5.71642 30.9293 5.76156 30.7314L8.00716 20.8672C8.04881 20.683 8.04115 20.4903 7.98503 20.3103C7.92892 20.1303 7.82652 19.97 7.68911 19.8471L0.342408 13.2502C0.195287 13.1176 0.088856 12.9424 0.036498 12.7466C-0.01586 12.5508 -0.0118066 12.3432 0.0481483 12.1498C0.108103 11.9564 0.221283 11.7859 0.373453 11.6597C0.525624 11.5336 0.709992 11.4574 0.903371 11.4407L10.5463 10.6312C10.7268 10.6161 10.8997 10.5492 11.0462 10.4377C11.1926 10.3262 11.3069 10.1745 11.3764 9.9994L15.09 0.640685V0.638854Z" fill="url(#paint0_linear_331_109)"/>
<path d="M65.09 0.638854C65.1639 0.449905 65.2898 0.288268 65.4516 0.174507C65.6134 0.0607447 65.8038 0 65.9987 0C66.1936 0 66.384 0.0607447 66.5458 0.174507C66.7076 0.288268 66.8335 0.449905 66.9074 0.638854L70.621 9.9994C70.6905 10.1745 70.8048 10.3262 70.9512 10.4377C71.0977 10.5492 71.2706 10.6161 71.4511 10.6312L81.094 11.4407C81.9661 11.514 82.3191 12.655 81.655 13.2502L74.3083 19.8471C74.171 19.9702 74.0688 20.1304 74.0127 20.3104C73.9566 20.4903 73.9488 20.683 73.9902 20.8672L76.2358 30.7296C76.281 30.9275 76.2692 31.1349 76.2019 31.3257C76.1346 31.5165 76.0148 31.6822 75.8577 31.8017C75.7007 31.9213 75.5133 31.9894 75.3193 31.9974C75.1254 32.0054 74.9335 31.953 74.7679 31.8468L66.5107 26.563C66.3565 26.4645 66.1793 26.4124 65.9987 26.4124C65.8181 26.4124 65.6409 26.4645 65.4867 26.563L57.2295 31.8486C57.0639 31.9548 56.872 32.0072 56.6781 31.9992C56.4841 31.9912 56.2967 31.9231 56.1397 31.8036C55.9826 31.684 55.8628 31.5184 55.7956 31.3276C55.7283 31.1367 55.7164 30.9293 55.7616 30.7314L58.0072 20.8672C58.0488 20.683 58.0411 20.4903 57.985 20.3103C57.9289 20.1303 57.8265 19.97 57.6891 19.8471L50.3424 13.2502C50.1953 13.1176 50.0889 12.9424 50.0365 12.7466C49.9841 12.5508 49.9882 12.3432 50.0481 12.1498C50.1081 11.9564 50.2213 11.7859 50.3735 11.6597C50.5256 11.5336 50.71 11.4574 50.9034 11.4407L60.5463 10.6312C60.7268 10.6161 60.8997 10.5492 61.0462 10.4377C61.1926 10.3262 61.3069 10.1745 61.3764 9.9994L65.09 0.640685V0.638854Z" fill="url(#paint1_linear_331_109)"/>
<defs>
<linearGradient id="paint0_linear_331_109" x1="0.0727536" y1="0.4375" x2="34.0728" y2="32.4375" gradientUnits="userSpaceOnUse">
<stop stop-color="#0E6B01"/>
<stop offset="0.484375" stop-color="#6E9F6A"/>
<stop offset="1" stop-color="#0F6B02"/>
</linearGradient>
<linearGradient id="paint1_linear_331_109" x1="50.0728" y1="0.4375" x2="84.0728" y2="32.4375" gradientUnits="userSpaceOnUse">
<stop stop-color="#0E6B01"/>
<stop offset="0.484375" stop-color="#6E9F6A"/>
<stop offset="1" stop-color="#0F6B02"/>
</linearGradient>
</defs>
</svg>
