<svg width="234" height="33" viewBox="0 0 234 33" fill="none" xmlns="http://www.w3.org/2000/svg">
<path d="M16.0172 0.638854C16.0911 0.449905 16.217 0.288268 16.3788 0.174507C16.5406 0.0607447 16.7311 0 16.9259 0C17.1208 0 17.3113 0.0607447 17.4731 0.174507C17.6349 0.288268 17.7608 0.449905 17.8347 0.638854L21.5482 9.9994C21.6177 10.1745 21.732 10.3262 21.8785 10.4377C22.0249 10.5492 22.1979 10.6161 22.3783 10.6312L32.0213 11.4407C32.8933 11.514 33.2463 12.655 32.5822 13.2502L25.2355 19.8471C25.0983 19.9702 24.996 20.1304 24.9399 20.3104C24.8838 20.4903 24.876 20.683 24.9175 20.8672L27.1631 30.7296C27.2082 30.9275 27.1964 31.1349 27.1291 31.3257C27.0618 31.5165 26.9421 31.6822 26.785 31.8017C26.6279 31.9213 26.4405 31.9894 26.2466 31.9974C26.0526 32.0054 25.8607 31.953 25.6951 31.8468L17.438 26.563C17.2837 26.4645 17.1066 26.4124 16.9259 26.4124C16.7453 26.4124 16.5682 26.4645 16.4139 26.563L8.15675 31.8486C7.99118 31.9548 7.79929 32.0072 7.60532 31.9992C7.41135 31.9912 7.22399 31.9231 7.06692 31.8036C6.90984 31.684 6.7901 31.5184 6.7228 31.3276C6.6555 31.1367 6.64367 30.9293 6.6888 30.7314L8.93441 20.8672C8.97605 20.683 8.9684 20.4903 8.91228 20.3103C8.85617 20.1303 8.75377 19.97 8.61635 19.8471L1.26965 13.2502C1.12253 13.1176 1.0161 12.9424 0.963744 12.7466C0.911386 12.5508 0.915439 12.3432 0.975394 12.1498C1.03535 11.9564 1.14853 11.7859 1.3007 11.6597C1.45287 11.5336 1.63724 11.4574 1.83062 11.4407L11.4736 10.6312C11.654 10.6161 11.827 10.5492 11.9734 10.4377C12.1199 10.3262 12.2342 10.1745 12.3037 9.9994L16.0172 0.640685V0.638854Z" fill="url(#paint0_linear_331_108)"/>
<path d="M66.09 1.07635C66.1639 0.887405 66.2898 0.725768 66.4516 0.612007C66.6134 0.498245 66.8038 0.4375 66.9987 0.4375C67.1936 0.4375 67.384 0.498245 67.5458 0.612007C67.7076 0.725768 67.8335 0.887405 67.9074 1.07635L71.621 10.4369C71.6905 10.612 71.8048 10.7637 71.9512 10.8752C72.0977 10.9867 72.2706 11.0536 72.4511 11.0687L82.094 11.8782C82.9661 11.9515 83.3191 13.0925 82.655 13.6877L75.3083 20.2846C75.171 20.4077 75.0688 20.5679 75.0127 20.7479C74.9566 20.9278 74.9488 21.1205 74.9902 21.3047L77.2358 31.1671C77.281 31.365 77.2692 31.5724 77.2019 31.7632C77.1346 31.954 77.0148 32.1197 76.8577 32.2392C76.7007 32.3588 76.5133 32.4269 76.3193 32.4349C76.1254 32.4429 75.9335 32.3905 75.7679 32.2843L67.5107 27.0005C67.3565 26.902 67.1793 26.8499 66.9987 26.8499C66.8181 26.8499 66.6409 26.902 66.4867 27.0005L58.2295 32.2861C58.0639 32.3923 57.872 32.4447 57.6781 32.4367C57.4841 32.4287 57.2967 32.3606 57.1397 32.2411C56.9826 32.1215 56.8628 31.9559 56.7956 31.7651C56.7283 31.5742 56.7164 31.3668 56.7616 31.1689L59.0072 21.3047C59.0488 21.1205 59.0411 20.9278 58.985 20.7478C58.9289 20.5678 58.8265 20.4075 58.6891 20.2846L51.3424 13.6877C51.1953 13.5551 51.0889 13.3799 51.0365 13.1841C50.9841 12.9883 50.9882 12.7807 51.0481 12.5873C51.1081 12.3939 51.2213 12.2234 51.3735 12.0972C51.5256 11.9711 51.71 11.8949 51.9034 11.8782L61.5463 11.0687C61.7268 11.0536 61.8997 10.9867 62.0462 10.8752C62.1926 10.7637 62.3069 10.612 62.3764 10.4369L66.09 1.07819V1.07635Z" stroke="#A3A3A3" stroke-width="0.5" stroke-linecap="round" stroke-linejoin="round"/>
<path d="M116.09 1.07635C116.164 0.887405 116.29 0.725768 116.452 0.612007C116.613 0.498245 116.804 0.4375 116.999 0.4375C117.194 0.4375 117.384 0.498245 117.546 0.612007C117.708 0.725768 117.834 0.887405 117.907 1.07635L121.621 10.4369C121.69 10.612 121.805 10.7637 121.951 10.8752C122.098 10.9867 122.271 11.0536 122.451 11.0687L132.094 11.8782C132.966 11.9515 133.319 13.0925 132.655 13.6877L125.308 20.2846C125.171 20.4077 125.069 20.5679 125.013 20.7479C124.957 20.9278 124.949 21.1205 124.99 21.3047L127.236 31.1671C127.281 31.365 127.269 31.5724 127.202 31.7632C127.135 31.954 127.015 32.1197 126.858 32.2392C126.701 32.3588 126.513 32.4269 126.319 32.4349C126.125 32.4429 125.933 32.3905 125.768 32.2843L117.511 27.0005C117.356 26.902 117.179 26.8499 116.999 26.8499C116.818 26.8499 116.641 26.902 116.487 27.0005L108.229 32.2861C108.064 32.3923 107.872 32.4447 107.678 32.4367C107.484 32.4287 107.297 32.3606 107.14 32.2411C106.983 32.1215 106.863 31.9559 106.796 31.7651C106.728 31.5742 106.716 31.3668 106.762 31.1689L109.007 21.3047C109.049 21.1205 109.041 20.9278 108.985 20.7478C108.929 20.5678 108.827 20.4075 108.689 20.2846L101.342 13.6877C101.195 13.5551 101.089 13.3799 101.036 13.1841C100.984 12.9883 100.988 12.7807 101.048 12.5873C101.108 12.3939 101.221 12.2234 101.373 12.0972C101.526 11.9711 101.71 11.8949 101.903 11.8782L111.546 11.0687C111.727 11.0536 111.9 10.9867 112.046 10.8752C112.193 10.7637 112.307 10.612 112.376 10.4369L116.09 1.07819V1.07635Z" stroke="#A3A3A3" stroke-width="0.5" stroke-linecap="round" stroke-linejoin="round"/>
<path d="M166.09 1.07635C166.164 0.887405 166.29 0.725768 166.452 0.612007C166.613 0.498245 166.804 0.4375 166.999 0.4375C167.194 0.4375 167.384 0.498245 167.546 0.612007C167.708 0.725768 167.834 0.887405 167.907 1.07635L171.621 10.4369C171.69 10.612 171.805 10.7637 171.951 10.8752C172.098 10.9867 172.271 11.0536 172.451 11.0687L182.094 11.8782C182.966 11.9515 183.319 13.0925 182.655 13.6877L175.308 20.2846C175.171 20.4077 175.069 20.5679 175.013 20.7479C174.957 20.9278 174.949 21.1205 174.99 21.3047L177.236 31.1671C177.281 31.365 177.269 31.5724 177.202 31.7632C177.135 31.954 177.015 32.1197 176.858 32.2392C176.701 32.3588 176.513 32.4269 176.319 32.4349C176.125 32.4429 175.933 32.3905 175.768 32.2843L167.511 27.0005C167.356 26.902 167.179 26.8499 166.999 26.8499C166.818 26.8499 166.641 26.902 166.487 27.0005L158.229 32.2861C158.064 32.3923 157.872 32.4447 157.678 32.4367C157.484 32.4287 157.297 32.3606 157.14 32.2411C156.983 32.1215 156.863 31.9559 156.796 31.7651C156.728 31.5742 156.716 31.3668 156.762 31.1689L159.007 21.3047C159.049 21.1205 159.041 20.9278 158.985 20.7478C158.929 20.5678 158.827 20.4075 158.689 20.2846L151.342 13.6877C151.195 13.5551 151.089 13.3799 151.036 13.1841C150.984 12.9883 150.988 12.7807 151.048 12.5873C151.108 12.3939 151.221 12.2234 151.373 12.0972C151.526 11.9711 151.71 11.8949 151.903 11.8782L161.546 11.0687C161.727 11.0536 161.9 10.9867 162.046 10.8752C162.193 10.7637 162.307 10.612 162.376 10.4369L166.09 1.07819V1.07635Z" stroke="#A3A3A3" stroke-width="0.5" stroke-linecap="round" stroke-linejoin="round"/>
<path d="M216.09 1.07635C216.164 0.887405 216.29 0.725768 216.452 0.612007C216.613 0.498245 216.804 0.4375 216.999 0.4375C217.194 0.4375 217.384 0.498245 217.546 0.612007C217.708 0.725768 217.834 0.887405 217.907 1.07635L221.621 10.4369C221.69 10.612 221.805 10.7637 221.951 10.8752C222.098 10.9867 222.271 11.0536 222.451 11.0687L232.094 11.8782C232.966 11.9515 233.319 13.0925 232.655 13.6877L225.308 20.2846C225.171 20.4077 225.069 20.5679 225.013 20.7479C224.957 20.9278 224.949 21.1205 224.99 21.3047L227.236 31.1671C227.281 31.365 227.269 31.5724 227.202 31.7632C227.135 31.954 227.015 32.1197 226.858 32.2392C226.701 32.3588 226.513 32.4269 226.319 32.4349C226.125 32.4429 225.933 32.3905 225.768 32.2843L217.511 27.0005C217.356 26.902 217.179 26.8499 216.999 26.8499C216.818 26.8499 216.641 26.902 216.487 27.0005L208.229 32.2861C208.064 32.3923 207.872 32.4447 207.678 32.4367C207.484 32.4287 207.297 32.3606 207.14 32.2411C206.983 32.1215 206.863 31.9559 206.796 31.7651C206.728 31.5742 206.716 31.3668 206.762 31.1689L209.007 21.3047C209.049 21.1205 209.041 20.9278 208.985 20.7478C208.929 20.5678 208.827 20.4075 208.689 20.2846L201.342 13.6877C201.195 13.5551 201.089 13.3799 201.036 13.1841C200.984 12.9883 200.988 12.7807 201.048 12.5873C201.108 12.3939 201.221 12.2234 201.373 12.0972C201.526 11.9711 201.71 11.8949 201.903 11.8782L211.546 11.0687C211.727 11.0536 211.9 10.9867 212.046 10.8752C212.193 10.7637 212.307 10.612 212.376 10.4369L216.09 1.07819V1.07635Z" stroke="#A3A3A3" stroke-width="0.5" stroke-linecap="round" stroke-linejoin="round"/>
<defs>
<linearGradient id="paint0_linear_331_108" x1="1" y1="0.4375" x2="35" y2="32.4375" gradientUnits="userSpaceOnUse">
<stop stop-color="#8E8E8E"/>
<stop offset="0.484375" stop-color="#D1D1D1"/>
<stop offset="1" stop-color="#666666"/>
</linearGradient>
</defs>
</svg>
