<svg width="254" height="34" viewBox="0 0 254 34" fill="none" xmlns="http://www.w3.org/2000/svg">
<path d="M16.6461 1.44115C16.7267 1.24511 16.864 1.07741 17.0405 0.959375C17.217 0.841344 17.4247 0.77832 17.6373 0.77832C17.8498 0.77832 18.0575 0.841344 18.234 0.959375C18.4105 1.07741 18.5478 1.24511 18.6285 1.44115L22.679 11.1529C22.7549 11.3347 22.8795 11.492 23.0392 11.6077C23.199 11.7233 23.3876 11.7928 23.5845 11.8085L34.1026 12.6484C35.0538 12.7244 35.4388 13.9082 34.7145 14.5257L26.701 21.3702C26.5513 21.4978 26.4397 21.6641 26.3785 21.8508C26.3174 22.0375 26.3089 22.2374 26.3541 22.4286L28.8035 32.661C28.8527 32.8663 28.8398 33.0815 28.7664 33.2795C28.693 33.4775 28.5624 33.6493 28.3911 33.7734C28.2197 33.8974 28.0154 33.968 27.8038 33.9763C27.5922 33.9847 27.3829 33.9303 27.2023 33.8201L18.1958 28.3381C18.0275 28.2359 17.8343 28.1818 17.6373 28.1818C17.4402 28.1818 17.247 28.2359 17.0788 28.3381L8.07217 33.822C7.89157 33.9322 7.68227 33.9866 7.47069 33.9782C7.25912 33.9699 7.05476 33.8993 6.88343 33.7753C6.7121 33.6512 6.58148 33.4794 6.50807 33.2814C6.43467 33.0834 6.42176 32.8682 6.471 32.6629L8.92041 22.4286C8.96583 22.2374 8.95748 22.0375 8.89627 21.8507C8.83507 21.664 8.72337 21.4977 8.57349 21.3702L0.560008 14.5257C0.399535 14.3882 0.283444 14.2064 0.226334 14.0033C0.169224 13.8001 0.173645 13.5847 0.239042 13.384C0.304438 13.1834 0.427889 13.0065 0.593871 12.8756C0.759853 12.7447 0.960954 12.6656 1.17188 12.6484L11.6901 11.8085C11.8869 11.7928 12.0755 11.7233 12.2353 11.6077C12.395 11.492 12.5196 11.3347 12.5955 11.1529L16.6461 1.44305V1.44115Z" fill="url(#paint0_linear_406_63)"/>
<path d="M71.1841 1.44115C71.2648 1.24511 71.4021 1.07741 71.5786 0.959375C71.7551 0.841344 71.9628 0.77832 72.1753 0.77832C72.3879 0.77832 72.5956 0.841344 72.7721 0.959375C72.9486 1.07741 73.0859 1.24511 73.1665 1.44115L77.2171 11.1529C77.2929 11.3347 77.4176 11.492 77.5773 11.6077C77.7371 11.7233 77.9257 11.7928 78.1225 11.8085L88.6407 12.6484C89.5919 12.7244 89.9769 13.9082 89.2526 14.5257L81.2391 21.3702C81.0894 21.4978 80.9778 21.6641 80.9166 21.8508C80.8554 22.0375 80.847 22.2374 80.8922 22.4286L83.3416 32.661C83.3908 32.8663 83.3779 33.0815 83.3045 33.2795C83.2311 33.4775 83.1005 33.6493 82.9292 33.7734C82.7578 33.8974 82.5535 33.968 82.3419 33.9763C82.1303 33.9847 81.921 33.9303 81.7404 33.8201L72.7338 28.3381C72.5656 28.2359 72.3724 28.1818 72.1753 28.1818C71.9783 28.1818 71.7851 28.2359 71.6168 28.3381L62.6103 33.822C62.4297 33.9322 62.2204 33.9866 62.0088 33.9782C61.7972 33.9699 61.5928 33.8993 61.4215 33.7753C61.2502 33.6512 61.1196 33.4794 61.0462 33.2814C60.9728 33.0834 60.9599 32.8682 61.0091 32.6629L63.4585 22.4286C63.5039 22.2374 63.4956 22.0375 63.4344 21.8507C63.3732 21.664 63.2615 21.4977 63.1116 21.3702L55.0981 14.5257C54.9376 14.3882 54.8215 14.2064 54.7644 14.0033C54.7073 13.8001 54.7117 13.5847 54.7771 13.384C54.8425 13.1834 54.966 13.0065 55.132 12.8756C55.2979 12.7447 55.499 12.6656 55.71 12.6484L66.2281 11.8085C66.4249 11.7928 66.6136 11.7233 66.7733 11.6077C66.9331 11.492 67.0577 11.3347 67.1336 11.1529L71.1841 1.44305V1.44115Z" fill="url(#paint1_linear_406_63)"/>
<path d="M125.722 1.44115C125.802 1.24511 125.94 1.07741 126.116 0.959375C126.293 0.841344 126.5 0.77832 126.713 0.77832C126.925 0.77832 127.133 0.841344 127.31 0.959375C127.486 1.07741 127.624 1.24511 127.704 1.44115L131.755 11.1529C131.831 11.3347 131.955 11.492 132.115 11.6077C132.275 11.7233 132.463 11.7928 132.66 11.8085L143.178 12.6484C144.129 12.7244 144.515 13.9082 143.79 14.5257L135.777 21.3702C135.627 21.4978 135.515 21.6641 135.454 21.8508C135.393 22.0375 135.385 22.2374 135.43 22.4286L137.879 32.661C137.928 32.8663 137.916 33.0815 137.842 33.2795C137.769 33.4775 137.638 33.6493 137.467 33.7734C137.295 33.8974 137.091 33.968 136.88 33.9763C136.668 33.9847 136.459 33.9303 136.278 33.8201L127.271 28.3381C127.103 28.2359 126.91 28.1818 126.713 28.1818C126.516 28.1818 126.323 28.2359 126.154 28.3381L117.148 33.822C116.967 33.9322 116.758 33.9866 116.546 33.9782C116.335 33.9699 116.13 33.8993 115.959 33.7753C115.788 33.6512 115.657 33.4794 115.584 33.2814C115.51 33.0834 115.497 32.8682 115.547 32.6629L117.996 22.4286C118.042 22.2374 118.033 22.0375 117.972 21.8507C117.911 21.664 117.799 21.4977 117.649 21.3702L109.636 14.5257C109.475 14.3882 109.359 14.2064 109.302 14.0033C109.245 13.8001 109.249 13.5847 109.315 13.384C109.38 13.1834 109.504 13.0065 109.67 12.8756C109.836 12.7447 110.037 12.6656 110.248 12.6484L120.766 11.8085C120.963 11.7928 121.151 11.7233 121.311 11.6077C121.471 11.492 121.595 11.3347 121.671 11.1529L125.722 1.44305V1.44115Z" fill="url(#paint2_linear_406_63)"/>
<path d="M180.26 1.44115C180.34 1.24511 180.478 1.07741 180.654 0.959375C180.831 0.841344 181.038 0.77832 181.251 0.77832C181.464 0.77832 181.671 0.841344 181.848 0.959375C182.024 1.07741 182.162 1.24511 182.242 1.44115L186.293 11.1529C186.369 11.3347 186.493 11.492 186.653 11.6077C186.813 11.7233 187.001 11.7928 187.198 11.8085L197.716 12.6484C198.668 12.7244 199.053 13.9082 198.328 14.5257L190.315 21.3702C190.165 21.4978 190.054 21.6641 189.992 21.8508C189.931 22.0375 189.923 22.2374 189.968 22.4286L192.417 32.661C192.467 32.8663 192.454 33.0815 192.38 33.2795C192.307 33.4775 192.176 33.6493 192.005 33.7734C191.834 33.8974 191.629 33.968 191.418 33.9763C191.206 33.9847 190.997 33.9303 190.816 33.8201L181.81 28.3381C181.641 28.2359 181.448 28.1818 181.251 28.1818C181.054 28.1818 180.861 28.2359 180.693 28.3381L171.686 33.822C171.505 33.9322 171.296 33.9866 171.084 33.9782C170.873 33.9699 170.669 33.8993 170.497 33.7753C170.326 33.6512 170.195 33.4794 170.122 33.2814C170.048 33.0834 170.036 32.8682 170.085 32.6629L172.534 22.4286C172.58 22.2374 172.571 22.0375 172.51 21.8507C172.449 21.664 172.337 21.4977 172.187 21.3702L164.174 14.5257C164.013 14.3882 163.897 14.2064 163.84 14.0033C163.783 13.8001 163.787 13.5847 163.853 13.384C163.918 13.1834 164.042 13.0065 164.208 12.8756C164.374 12.7447 164.575 12.6656 164.786 12.6484L175.304 11.8085C175.501 11.7928 175.689 11.7233 175.849 11.6077C176.009 11.492 176.133 11.3347 176.209 11.1529L180.26 1.44305V1.44115Z" fill="url(#paint3_linear_406_63)"/>
<path d="M234.798 1.44115C234.879 1.24511 235.016 1.07741 235.192 0.959375C235.369 0.841344 235.577 0.77832 235.789 0.77832C236.002 0.77832 236.209 0.841344 236.386 0.959375C236.562 1.07741 236.7 1.24511 236.78 1.44115L240.831 11.1529C240.907 11.3347 241.031 11.492 241.191 11.6077C241.351 11.7233 241.54 11.7928 241.736 11.8085L252.254 12.6484C253.206 12.7244 253.591 13.9082 252.866 14.5257L244.853 21.3702C244.703 21.4978 244.592 21.6641 244.53 21.8508C244.469 22.0375 244.461 22.2374 244.506 22.4286L246.955 32.661C247.005 32.8663 246.992 33.0815 246.918 33.2795C246.845 33.4775 246.714 33.6493 246.543 33.7734C246.372 33.8974 246.167 33.968 245.956 33.9763C245.744 33.9847 245.535 33.9303 245.354 33.8201L236.348 28.3381C236.179 28.2359 235.986 28.1818 235.789 28.1818C235.592 28.1818 235.399 28.2359 235.231 28.3381L226.224 33.822C226.043 33.9322 225.834 33.9866 225.623 33.9782C225.411 33.9699 225.207 33.8993 225.035 33.7753C224.864 33.6512 224.733 33.4794 224.66 33.2814C224.587 33.0834 224.574 32.8682 224.623 32.6629L227.072 22.4286C227.118 22.2374 227.109 22.0375 227.048 21.8507C226.987 21.664 226.875 21.4977 226.725 21.3702L218.712 14.5257C218.551 14.3882 218.435 14.2064 218.378 14.0033C218.321 13.8001 218.326 13.5847 218.391 13.384C218.456 13.1834 218.58 13.0065 218.746 12.8756C218.912 12.7447 219.113 12.6656 219.324 12.6484L229.842 11.8085C230.039 11.7928 230.227 11.7233 230.387 11.6077C230.547 11.492 230.672 11.3347 230.747 11.1529L234.798 1.44305V1.44115Z" fill="url(#paint4_linear_406_63)"/>
<defs>
<linearGradient id="paint0_linear_406_63" x1="0.26588" y1="1.23224" x2="35.6045" y2="36.1987" gradientUnits="userSpaceOnUse">
<stop stop-color="#C4FDE2"/>
<stop offset="0.276042" stop-color="#FAC5EE"/>
<stop offset="0.515625" stop-color="#CDECA5"/>
<stop offset="0.713542" stop-color="#EDF0AF"/>
<stop offset="1" stop-color="#C4FDE2"/>
</linearGradient>
<linearGradient id="paint1_linear_406_63" x1="54.804" y1="1.23224" x2="90.1426" y2="36.1987" gradientUnits="userSpaceOnUse">
<stop stop-color="#C4FDE2"/>
<stop offset="0.276042" stop-color="#FAC5EE"/>
<stop offset="0.515625" stop-color="#CDECA5"/>
<stop offset="0.713542" stop-color="#EDF0AF"/>
<stop offset="1" stop-color="#C4FDE2"/>
</linearGradient>
<linearGradient id="paint2_linear_406_63" x1="109.342" y1="1.23224" x2="144.68" y2="36.1987" gradientUnits="userSpaceOnUse">
<stop stop-color="#C4FDE2"/>
<stop offset="0.276042" stop-color="#FAC5EE"/>
<stop offset="0.515625" stop-color="#CDECA5"/>
<stop offset="0.713542" stop-color="#EDF0AF"/>
<stop offset="1" stop-color="#C4FDE2"/>
</linearGradient>
<linearGradient id="paint3_linear_406_63" x1="163.88" y1="1.23224" x2="199.218" y2="36.1987" gradientUnits="userSpaceOnUse">
<stop stop-color="#C4FDE2"/>
<stop offset="0.276042" stop-color="#FAC5EE"/>
<stop offset="0.515625" stop-color="#CDECA5"/>
<stop offset="0.713542" stop-color="#EDF0AF"/>
<stop offset="1" stop-color="#C4FDE2"/>
</linearGradient>
<linearGradient id="paint4_linear_406_63" x1="218.418" y1="1.23224" x2="253.756" y2="36.1987" gradientUnits="userSpaceOnUse">
<stop stop-color="#C4FDE2"/>
<stop offset="0.276042" stop-color="#FAC5EE"/>
<stop offset="0.515625" stop-color="#CDECA5"/>
<stop offset="0.713542" stop-color="#EDF0AF"/>
<stop offset="1" stop-color="#C4FDE2"/>
</linearGradient>
</defs>
</svg>
